<?xml version="1.0" encoding="UTF-8"?>
<svg xmlns="http://www.w3.org/2000/svg" xmlns:xlink="http://www.w3.org/1999/xlink" width="64px" height="64px" viewBox="0 0 64 64" version="1.1">
<g id="surface71063">
<path style=" stroke:none;fill-rule:nonzero;fill:rgb(98.039216%,93.72549%,87.058824%);fill-opacity:1;" d="M 57 51 L 57 48 C 57 47.449219 56.550781 47 56 47 L 8 47 C 7.449219 47 7 47.449219 7 48 L 7 51 L 4 51 C 3.449219 51 3 51.449219 3 52 L 3 57 L 61 57 L 61 52 C 61 51.449219 60.550781 51 60 51 Z M 11 25 L 17 25 L 17 47 L 11 47 Z M 47 25 L 53 25 L 53 47 L 47 47 Z M 23 25 L 29 25 L 29 47 L 23 47 Z M 35 25 L 41 25 L 41 47 L 35 47 Z M 35 25 "/>
<path style=" stroke:none;fill-rule:nonzero;fill:rgb(93.72549%,84.705882%,74.509804%);fill-opacity:1;" d="M 11 25 L 17 25 L 17 28 L 11 28 Z M 47 25 L 53 25 L 53 28 L 47 28 Z M 23 25 L 29 25 L 29 28 L 23 28 Z M 35 25 L 41 25 L 41 28 L 35 28 Z M 35 25 "/>
<path style=" stroke:none;fill-rule:nonzero;fill:rgb(98.039216%,93.72549%,87.058824%);fill-opacity:1;" d="M 60.101562 19.070312 L 32.730469 8.289062 C 32.257812 8.101562 31.730469 8.101562 31.261719 8.289062 L 3.898438 19.070312 C 3.453125 19.246094 3.195312 19.714844 3.285156 20.1875 C 3.375 20.660156 3.789062 21 4.269531 21 L 7 21 L 7 24 C 7 24.550781 7.449219 25 8 25 L 56 25 C 56.550781 25 57 24.550781 57 24 L 57 21 L 59.730469 21 C 60.210938 21 60.625 20.660156 60.714844 20.1875 C 60.804688 19.714844 60.546875 19.246094 60.101562 19.070312 Z M 60.101562 19.070312 "/>
<path style=" stroke:none;fill-rule:nonzero;fill:rgb(77.254902%,89.411765%,98.039216%);fill-opacity:1;" d="M 32 13 C 30.894531 13 30 13.894531 30 15 C 30 16.105469 30.894531 17 32 17 C 33.105469 17 34 16.105469 34 15 C 34 13.894531 33.105469 13 32 13 Z M 32 13 "/>
<path style=" stroke:none;fill-rule:nonzero;fill:rgb(93.72549%,84.705882%,74.509804%);fill-opacity:1;" d="M 3 52 L 61 52 L 61 57 L 3 57 Z M 7 21 L 57 21 L 57 25 L 7 25 Z M 7 21 "/>
<path style=" stroke:none;fill-rule:nonzero;fill:rgb(55.294118%,42.352941%,62.352941%);fill-opacity:1;" d="M 17 50 C 16.449219 50 16 50.449219 16 51 L 16 53 C 16 53.550781 16.449219 54 17 54 C 17.550781 54 18 53.550781 18 53 L 18 51 C 18 50.449219 17.550781 50 17 50 Z M 12 50 C 11.449219 50 11 50.449219 11 51 L 11 53 C 11 53.550781 11.449219 54 12 54 C 12.550781 54 13 53.550781 13 53 L 13 51 C 13 50.449219 12.550781 50 12 50 Z M 22 50 C 21.449219 50 21 50.449219 21 51 L 21 53 C 21 53.550781 21.449219 54 22 54 C 22.550781 54 23 53.550781 23 53 L 23 51 C 23 50.449219 22.550781 50 22 50 Z M 27 50 C 26.449219 50 26 50.449219 26 51 L 26 53 C 26 53.550781 26.449219 54 27 54 C 27.550781 54 28 53.550781 28 53 L 28 51 C 28 50.449219 27.550781 50 27 50 Z M 32 50 C 31.449219 50 31 50.449219 31 51 L 31 53 C 31 53.550781 31.449219 54 32 54 C 32.550781 54 33 53.550781 33 53 L 33 51 C 33 50.449219 32.550781 50 32 50 Z M 37 50 C 36.449219 50 36 50.449219 36 51 L 36 53 C 36 53.550781 36.449219 54 37 54 C 37.550781 54 38 53.550781 38 53 L 38 51 C 38 50.449219 37.550781 50 37 50 Z M 42 50 C 41.449219 50 41 50.449219 41 51 L 41 53 C 41 53.550781 41.449219 54 42 54 C 42.550781 54 43 53.550781 43 53 L 43 51 C 43 50.449219 42.550781 50 42 50 Z M 47 50 C 46.449219 50 46 50.449219 46 51 L 46 53 C 46 53.550781 46.449219 54 47 54 C 47.550781 54 48 53.550781 48 53 L 48 51 C 48 50.449219 47.550781 50 47 50 Z M 52 50 C 51.449219 50 51 50.449219 51 51 L 51 53 C 51 53.550781 51.449219 54 52 54 C 52.550781 54 53 53.550781 53 53 L 53 51 C 53 50.449219 52.550781 50 52 50 Z M 32 12 C 30.34375 12 29 13.34375 29 15 C 29 16.65625 30.34375 18 32 18 C 33.65625 18 35 16.65625 35 15 C 35 13.34375 33.65625 12 32 12 Z M 32 16.25 C 31.308594 16.25 30.75 15.691406 30.75 15 C 30.75 14.308594 31.308594 13.75 32 13.75 C 32.691406 13.75 33.25 14.308594 33.25 15 C 33.25 15.691406 32.691406 16.25 32 16.25 Z M 32 16.25 "/>
<path style=" stroke:none;fill-rule:nonzero;fill:rgb(55.294118%,42.352941%,62.352941%);fill-opacity:1;" d="M 60 50 L 58 50 L 58 48 C 58 46.894531 57.105469 46 56 46 L 54 46 L 54 26 L 56 26 C 57.105469 26 58 25.105469 58 24 L 58 22 L 59.730469 22 C 60.6875 21.996094 61.511719 21.3125 61.691406 20.371094 C 61.867188 19.429688 61.351562 18.492188 60.460938 18.140625 L 33.101562 7.359375 C 32.394531 7.082031 31.605469 7.082031 30.898438 7.359375 L 3.53125 18.140625 C 2.636719 18.492188 2.121094 19.433594 2.300781 20.375 C 2.480469 21.320312 3.308594 22.003906 4.269531 22 L 6 22 L 6 24 C 6 25.105469 6.894531 26 8 26 L 10 26 L 10 46 L 8 46 C 6.894531 46 6 46.894531 6 48 L 6 50 L 4 50 C 2.894531 50 2 50.894531 2 52 L 2 57 C 2 57.550781 2.449219 58 3 58 L 61 58 C 61.550781 58 62 57.550781 62 57 L 62 52 C 62 50.894531 61.105469 50 60 50 Z M 52 46 L 48 46 L 48 26 L 52 26 Z M 22 46 L 18 46 L 18 26 L 22 26 Z M 24 26 L 28 26 L 28 46 L 24 46 Z M 30 26 L 34 26 L 34 46 L 30 46 Z M 36 26 L 40 26 L 40 46 L 36 46 Z M 42 26 L 46 26 L 46 46 L 42 46 Z M 8 24 L 8 22 L 45 22 C 45.550781 22 46 21.550781 46 21 C 46 20.449219 45.550781 20 45 20 L 4.269531 20 L 31.628906 9.21875 C 31.863281 9.128906 32.125 9.128906 32.359375 9.21875 L 59.730469 20 L 57 20 C 56.449219 20 56 20.449219 56 21 L 56 24 Z M 12 26 L 16 26 L 16 46 L 12 46 Z M 60 56 L 4 56 L 4 52 L 7 52 C 7.550781 52 8 51.550781 8 51 L 8 48 L 56 48 L 56 51 C 56 51.550781 56.449219 52 57 52 L 60 52 Z M 60 56 "/>
<path style=" stroke:none;fill-rule:nonzero;fill:rgb(55.294118%,42.352941%,62.352941%);fill-opacity:1;" d="M 49 22 L 53 22 C 53.550781 22 54 21.550781 54 21 C 54 20.449219 53.550781 20 53 20 L 49 20 C 48.449219 20 48 20.449219 48 21 C 48 21.550781 48.449219 22 49 22 Z M 49 22 "/>
</g>
</svg>
